<svg width="140" height="141" viewBox="0 0 140 141" fill="none" xmlns="http://www.w3.org/2000/svg">
<path d="M50.5698 129.081C61.3033 129.081 70.0146 120.37 70.0146 109.637V90.1934H50.5698C39.8363 90.1934 31.125 98.9041 31.125 109.637C31.125 120.37 39.8363 129.081 50.5698 129.081Z" fill="#0ACF83"/>
<path d="M31.125 70.7478C31.125 60.0145 39.8363 51.3033 50.5698 51.3033H70.0146V90.1922H50.5698C39.8363 90.1922 31.125 81.4811 31.125 70.7478Z" fill="#A259FF"/>
<path d="M31.125 31.8568C31.125 21.1235 39.8363 12.4124 50.5698 12.4124H70.0146V51.3012H50.5698C39.8363 51.3012 31.125 42.5901 31.125 31.8568Z" fill="#F24E1E"/>
<path d="M70 12.4124H89.4444C100.178 12.4124 108.889 21.1235 108.889 31.8568C108.889 42.5901 100.178 51.3012 89.4444 51.3012H70V12.4124Z" fill="#FF7262"/>
<path d="M108.889 70.7478C108.889 81.4811 100.178 90.1922 89.4444 90.1922C78.7111 90.1922 70 81.4811 70 70.7478C70 60.0145 78.7111 51.3033 89.4444 51.3033C100.178 51.3033 108.889 60.0145 108.889 70.7478Z" fill="#1ABCFE"/>
</svg>
